<svg width="227" height="28" viewBox="0 0 227 28" fill="none" xmlns="http://www.w3.org/2000/svg">
<path d="M219.583 22.4862C215.007 22.4862 212.613 20.6983 212.432 17.0924H216.159C216.25 18.0621 216.553 18.759 217.098 19.1529C217.644 19.5772 218.492 19.759 219.643 19.759C221.704 19.759 222.734 19.1529 222.734 17.8803C222.734 17.3348 222.492 16.8803 222.068 16.5773C221.613 16.2743 220.825 16.0318 219.674 15.8197L217.886 15.5167C214.462 14.9713 212.765 13.3956 212.765 10.7896C212.765 9.33511 213.31 8.18364 214.462 7.33518C215.583 6.48673 217.189 6.0625 219.25 6.0625C223.704 6.0625 226.007 7.85032 226.158 11.3653H222.552C222.492 10.4563 222.219 9.78964 221.674 9.39572C221.128 9.00179 220.31 8.78968 219.25 8.78968C217.431 8.78968 216.522 9.39572 216.522 10.6078C216.522 11.1532 216.704 11.5472 217.128 11.8502C217.522 12.1532 218.189 12.3653 219.128 12.5168L221.098 12.8198C222.977 13.1835 224.371 13.7289 225.219 14.4561C226.068 15.2137 226.522 16.244 226.522 17.5772C226.522 19.1529 225.916 20.365 224.704 21.2135C223.492 22.0619 221.765 22.4862 219.583 22.4862Z" fill="black"/>
<path d="M211.227 6.4242V9.33319H208.136V17.7874C208.136 18.3026 208.257 18.6662 208.53 18.848C208.802 19.0601 209.257 19.151 209.924 19.151H211.227V22.06C210.378 22.1509 209.711 22.1812 209.227 22.1812C207.53 22.1812 206.287 21.8782 205.499 21.2419C204.712 20.6055 204.348 19.5753 204.348 18.1814V9.33319H201.924V6.4242H204.348V1.87891H208.136V6.4242H211.227Z" fill="black"/>
<path d="M195.021 6.0625C196.718 6.0625 198.051 6.57763 199.021 7.5473C199.99 8.51696 200.505 9.91085 200.505 11.6987V22.0619H196.687V12.335C196.687 10.3654 195.687 9.36541 193.748 9.36541C192.778 9.36541 191.93 9.72904 191.263 10.426C190.597 11.1229 190.263 12.0926 190.263 13.3047V22.0619H186.445V6.42612H190.142V8.66847C191.324 6.94126 192.96 6.0625 195.021 6.0625Z" fill="black"/>
<path d="M183.979 14.5167V15.4258H172.283C172.404 16.7591 172.828 17.7894 173.525 18.456C174.222 19.1226 175.162 19.456 176.343 19.456C178.071 19.456 179.252 18.7287 179.919 17.2136H183.585C183.161 18.8196 182.313 20.0923 181.04 21.0317C179.737 21.971 178.161 22.4256 176.313 22.4256C173.98 22.4256 172.101 21.6983 170.677 20.1832C169.222 18.6984 168.525 16.7288 168.525 14.244C168.525 11.7896 169.222 9.81994 170.647 8.30484C172.071 6.82005 173.949 6.0625 176.252 6.0625C178.616 6.0625 180.495 6.85035 181.889 8.39575C183.282 9.97145 183.979 12.0017 183.979 14.5167ZM176.222 9.03209C173.98 9.03209 172.677 10.2745 172.313 12.7592H180.161C179.98 11.6078 179.555 10.6987 178.889 10.0321C178.192 9.36541 177.313 9.03209 176.222 9.03209Z" fill="black"/>
<path d="M160.674 6.0625C162.371 6.0625 163.704 6.57763 164.674 7.5776C165.644 8.60786 166.128 9.97145 166.128 11.729V22.0619H162.31V12.335C162.31 10.3654 161.401 9.36541 159.613 9.36541C158.644 9.36541 157.856 9.72904 157.25 10.426C156.644 11.1229 156.371 12.1229 156.371 13.4562V22.0619H152.583V12.335C152.583 10.3654 151.674 9.36541 149.856 9.36541C148.887 9.36541 148.129 9.72904 147.523 10.426C146.917 11.1229 146.644 12.1229 146.644 13.4562V22.0619H142.826V6.42612H146.523V8.66847C147.584 6.94126 149.068 6.0625 150.977 6.0625C153.341 6.0625 154.977 7.03216 155.826 8.97149C156.977 7.03216 158.613 6.0625 160.674 6.0625Z" fill="black"/>
<path d="M133.442 6.0625C135.563 6.0625 137.29 6.82005 138.563 8.27454C139.805 9.78964 140.442 11.7593 140.442 14.244C140.442 16.7288 139.805 18.6984 138.563 20.1832C137.29 21.6983 135.563 22.4256 133.442 22.4256C131.321 22.4256 129.684 21.6377 128.593 20.0317V28.0011H124.775V6.42612H128.442V8.66847C129.563 6.94126 131.23 6.0625 133.442 6.0625ZM129.593 17.9712C130.26 18.8499 131.26 19.2742 132.533 19.2742C133.775 19.2742 134.775 18.8196 135.502 17.9106C136.199 17.0318 136.563 15.7591 136.563 14.1228C136.563 12.5471 136.199 11.335 135.502 10.4866C134.805 9.63813 133.805 9.2139 132.533 9.2139C131.26 9.2139 130.26 9.66843 129.563 10.5169C128.836 11.3956 128.503 12.638 128.503 14.244C128.503 15.8803 128.866 17.1227 129.593 17.9712Z" fill="black"/>
<path d="M120.197 20.1832C118.743 21.6983 116.804 22.4256 114.44 22.4256C112.046 22.4256 110.137 21.6983 108.683 20.1832C107.198 18.7287 106.471 16.7288 106.471 14.244C106.471 11.7593 107.198 9.78964 108.683 8.30484C110.137 6.82005 112.046 6.0625 114.44 6.0625C116.804 6.0625 118.743 6.82005 120.197 8.27454C121.652 9.75934 122.379 11.7593 122.379 14.244C122.379 16.7288 121.652 18.6984 120.197 20.1832ZM114.44 19.2742C115.713 19.2742 116.682 18.8499 117.41 17.9712C118.137 17.0924 118.501 15.85 118.501 14.244C118.501 12.6683 118.137 11.4259 117.41 10.5472C116.682 9.66843 115.713 9.2139 114.44 9.2139C113.167 9.2139 112.167 9.66843 111.44 10.5169C110.713 11.3956 110.38 12.638 110.38 14.244C110.38 15.8803 110.713 17.1227 111.44 17.9712C112.167 18.8499 113.167 19.2742 114.44 19.2742Z" fill="black"/>
<path d="M104.091 22.0594H100.273V0.484375H104.091V22.0594Z" fill="black"/>
<path d="M97.8075 14.5167V15.4258H86.111C86.2322 16.7591 86.6564 17.7894 87.3533 18.456C88.0503 19.1226 88.9896 19.456 90.1714 19.456C91.8986 19.456 93.0804 18.7287 93.7471 17.2136H97.4136C96.9894 18.8196 96.1409 20.0923 94.8682 21.0317C93.5652 21.971 91.9895 22.4256 90.1411 22.4256C87.8079 22.4256 85.9292 21.6983 84.505 20.1832C83.0505 18.6984 82.3535 16.7288 82.3535 14.244C82.3535 11.7896 83.0505 9.81994 84.4747 8.30484C85.8988 6.82005 87.7776 6.0625 90.0805 6.0625C92.4441 6.0625 94.3228 6.85035 95.7167 8.39575C97.1106 9.97145 97.8075 12.0017 97.8075 14.5167ZM90.0502 9.03209C87.8079 9.03209 86.5049 10.2745 86.1413 12.7592H93.9895C93.8077 11.6078 93.3834 10.6987 92.7168 10.0321C92.0198 9.36541 91.1411 9.03209 90.0502 9.03209Z" fill="black"/>
<path d="M76.7238 10.6075L78.2389 6.42578H82.2084L76.3904 22.0616H71.9967L66.209 6.42578H70.2998L71.8149 10.6378C72.5118 12.8498 73.3299 15.5164 74.2693 18.6072C74.9966 16.1224 75.8147 13.4558 76.7238 10.6075Z" fill="black"/>
<path d="M65.9677 14.5167V15.4258H54.2711C54.3923 16.7591 54.8165 17.7894 55.5135 18.456C56.2104 19.1226 57.1498 19.456 58.3316 19.456C60.0588 19.456 61.2406 18.7287 61.9072 17.2136H65.5737C65.1495 18.8196 64.3011 20.0923 63.0284 21.0317C61.7254 21.971 60.1497 22.4256 58.3013 22.4256C55.968 22.4256 54.0893 21.6983 52.6651 20.1832C51.2106 18.6984 50.5137 16.7288 50.5137 14.244C50.5137 11.7896 51.2106 9.81994 52.6348 8.30484C54.059 6.82005 55.9377 6.0625 58.2407 6.0625C60.6042 6.0625 62.4829 6.85035 63.8768 8.39575C65.2707 9.97145 65.9677 12.0017 65.9677 14.5167ZM58.2104 9.03209C55.968 9.03209 54.665 10.2745 54.3014 12.7592H62.1496C61.9678 11.6078 61.5436 10.6987 60.8769 10.0321C60.18 9.36541 59.3012 9.03209 58.2104 9.03209Z" fill="black"/>
<path d="M29.584 0.484375H37.8261C41.2805 0.484375 43.9471 1.45404 45.8258 3.36306C47.7046 5.30239 48.6439 7.93866 48.6439 11.2719C48.6439 14.6051 47.7046 17.2414 45.8258 19.1504C43.9471 21.0897 41.2805 22.0594 37.8261 22.0594H29.584V0.484375ZM33.6747 18.5443H37.7655C39.8867 18.5443 41.523 17.9383 42.6744 16.6959C43.8259 15.4535 44.4016 13.6354 44.4016 11.2719C44.4016 8.90832 43.8259 7.1205 42.6744 5.87812C41.523 4.63574 39.8867 3.9994 37.7655 3.9994H33.6747V18.5443Z" fill="black"/>
<path d="M11.242 13.7268V10.4239H20.8781V22.0598H17.9085L17.3327 19.2114C15.757 21.4538 13.4238 22.5447 10.3027 22.5447C7.18157 22.5447 4.69681 21.5144 2.81808 19.4539C0.939361 17.3933 0 14.6662 0 11.2723C0 7.87851 0.939361 5.15133 2.87869 3.0605C4.78771 1.03027 7.39368 0 10.6663 0C13.3632 0 15.6055 0.696946 17.4236 2.06053C19.1811 3.45443 20.272 5.30284 20.6356 7.6664H16.4237C16.1206 6.39371 15.454 5.39375 14.4237 4.6665C13.3935 3.93926 12.1511 3.57563 10.6966 3.57563C8.69666 3.57563 7.15126 4.27258 5.99979 5.63617C4.84831 7.03006 4.27258 8.90878 4.27258 11.2723C4.27258 13.6662 4.84831 15.5449 6.03009 16.9085C7.18157 18.3024 8.78757 18.969 10.8481 18.969C12.4541 18.969 13.848 18.4842 14.9995 17.5145C16.1509 16.5449 16.757 15.3025 16.8782 13.7268H11.242Z" fill="black"/>
</svg>
