<svg width="324" height="40" viewBox="0 0 324 40" fill="none" xmlns="http://www.w3.org/2000/svg">
<path d="M313.692 32.1206C307.155 32.1206 303.735 29.5666 303.476 24.4152H308.8C308.93 25.8005 309.363 26.7961 310.142 27.3588C310.921 27.9649 312.133 28.2246 313.778 28.2246C316.722 28.2246 318.194 27.3588 318.194 25.5407C318.194 24.7615 317.847 24.1122 317.241 23.6793C316.592 23.2464 315.466 22.9001 313.822 22.5971L311.268 22.1642C306.376 21.385 303.952 19.134 303.952 15.4112C303.952 13.3334 304.731 11.6884 306.376 10.4763C307.978 9.26424 310.272 8.6582 313.215 8.6582C319.579 8.6582 322.869 11.2122 323.085 16.2337H317.934C317.847 14.935 317.458 13.9827 316.679 13.4199C315.899 12.8572 314.731 12.5542 313.215 12.5542C310.618 12.5542 309.32 13.4199 309.32 15.1515C309.32 15.9307 309.579 16.4934 310.185 16.9263C310.748 17.3592 311.7 17.6622 313.042 17.8787L315.856 18.3115C318.54 18.831 320.531 19.6102 321.743 20.6491C322.955 21.7313 323.605 23.2031 323.605 25.1078C323.605 27.3588 322.739 29.0904 321.007 30.3025C319.276 31.5145 316.808 32.1206 313.692 32.1206Z" fill="white"/>
<path d="M301.753 9.17687V13.3326H297.338V25.4101C297.338 26.146 297.511 26.6654 297.901 26.9252C298.29 27.2282 298.94 27.358 299.892 27.358H301.753V31.5137C300.541 31.6436 299.589 31.6869 298.896 31.6869C296.472 31.6869 294.697 31.254 293.572 30.345C292.446 29.4359 291.927 27.9641 291.927 25.9728V13.3326H288.464V9.17687H291.927V2.68359H297.338V9.17687H301.753Z" fill="white"/>
<path d="M278.602 8.6582C281.026 8.6582 282.931 9.39411 284.316 10.7793C285.702 12.1646 286.437 14.1558 286.437 16.7099V31.5145H280.983V17.6189C280.983 14.8052 279.555 13.3767 276.784 13.3767C275.399 13.3767 274.187 13.8961 273.234 14.8918C272.282 15.8874 271.806 17.2726 271.806 19.0042V31.5145H266.352V9.17766H271.633V12.381C273.321 9.91357 275.659 8.6582 278.602 8.6582Z" fill="white"/>
<path d="M262.828 20.7357V22.0344H246.119C246.292 23.9391 246.898 25.4109 247.894 26.3632C248.889 27.3156 250.231 27.7917 251.919 27.7917C254.387 27.7917 256.075 26.7528 257.027 24.5884H262.265C261.659 26.8827 260.447 28.7008 258.629 30.0427C256.768 31.3847 254.517 32.034 251.876 32.034C248.543 32.034 245.859 30.9951 243.824 28.8307C241.747 26.7095 240.751 23.8958 240.751 20.3461C240.751 16.8397 241.747 14.026 243.781 11.8616C245.816 9.74041 248.5 8.6582 251.79 8.6582C255.166 8.6582 257.85 9.7837 259.841 11.9914C261.832 14.2424 262.828 17.1428 262.828 20.7357ZM251.746 12.9005C248.543 12.9005 246.682 14.6753 246.162 18.225H257.374C257.114 16.58 256.508 15.2813 255.556 14.329C254.56 13.3767 253.305 12.9005 251.746 12.9005Z" fill="white"/>
<path d="M229.537 8.6582C231.961 8.6582 233.866 9.39411 235.251 10.8226C236.636 12.2944 237.329 14.2424 237.329 16.7532V31.5145H231.875V17.6189C231.875 14.8052 230.576 13.3767 228.022 13.3767C226.637 13.3767 225.511 13.8961 224.645 14.8918C223.78 15.8874 223.39 17.3159 223.39 19.2206V31.5145H217.979V17.6189C217.979 14.8052 216.68 13.3767 214.083 13.3767C212.698 13.3767 211.616 13.8961 210.75 14.8918C209.884 15.8874 209.494 17.3159 209.494 19.2206V31.5145H204.04V9.17766H209.321V12.381C210.836 9.91357 212.957 8.6582 215.685 8.6582C219.061 8.6582 221.399 10.0434 222.611 12.8139C224.256 10.0434 226.593 8.6582 229.537 8.6582Z" fill="white"/>
<path d="M190.633 8.6582C193.664 8.6582 196.131 9.74042 197.949 11.8183C199.724 13.9827 200.633 16.7964 200.633 20.3461C200.633 23.8958 199.724 26.7095 197.949 28.8307C196.131 30.9951 193.664 32.034 190.633 32.034C187.603 32.034 185.266 30.9085 183.707 28.6142V39.9991H178.253V9.17766H183.491V12.381C185.093 9.91357 187.473 8.6582 190.633 8.6582ZM185.136 25.6706C186.088 26.926 187.517 27.532 189.335 27.532C191.11 27.532 192.538 26.8827 193.577 25.584C194.573 24.3286 195.092 22.5105 195.092 20.1729C195.092 17.9219 194.573 16.1904 193.577 14.9783C192.581 13.7662 191.153 13.1602 189.335 13.1602C187.517 13.1602 186.088 13.8095 185.093 15.0216C184.054 16.277 183.577 18.0518 183.577 20.3461C183.577 22.6837 184.097 24.4585 185.136 25.6706Z" fill="white"/>
<path d="M171.712 28.8307C169.634 30.9951 166.864 32.034 163.487 32.034C160.068 32.034 157.34 30.9951 155.263 28.8307C153.141 26.7528 152.103 23.8958 152.103 20.3461C152.103 16.7964 153.141 13.9827 155.263 11.8616C157.34 9.74041 160.068 8.6582 163.487 8.6582C166.864 8.6582 169.634 9.74042 171.712 11.8183C173.79 13.9394 174.829 16.7964 174.829 20.3461C174.829 23.8958 173.79 26.7095 171.712 28.8307ZM163.487 27.532C165.306 27.532 166.691 26.926 167.73 25.6706C168.769 24.4152 169.288 22.6404 169.288 20.3461C169.288 18.0951 168.769 16.3203 167.73 15.0649C166.691 13.8095 165.306 13.1602 163.487 13.1602C161.669 13.1602 160.241 13.8095 159.202 15.0216C158.163 16.277 157.687 18.0518 157.687 20.3461C157.687 22.6837 158.163 24.4585 159.202 25.6706C160.241 26.926 161.669 27.532 163.487 27.532Z" fill="white"/>
<path d="M148.704 31.5148H143.25V0.693359H148.704V31.5148Z" fill="white"/>
<path d="M139.727 20.7357V22.0344H123.017C123.19 23.9391 123.796 25.4109 124.792 26.3632C125.788 27.3156 127.13 27.7917 128.818 27.7917C131.285 27.7917 132.974 26.7528 133.926 24.5884H139.164C138.558 26.8827 137.346 28.7008 135.528 30.0427C133.666 31.3847 131.415 32.034 128.775 32.034C125.441 32.034 122.757 30.9951 120.723 28.8307C118.645 26.7095 117.649 23.8958 117.649 20.3461C117.649 16.8397 118.645 14.026 120.68 11.8616C122.714 9.74041 125.398 8.6582 128.688 8.6582C132.064 8.6582 134.748 9.7837 136.74 11.9914C138.731 14.2424 139.727 17.1428 139.727 20.7357ZM128.645 12.9005C125.441 12.9005 123.58 14.6753 123.06 18.225H134.272C134.012 16.58 133.406 15.2813 132.454 14.329C131.458 13.3767 130.203 12.9005 128.645 12.9005Z" fill="white"/>
<path d="M109.606 15.1516L111.771 9.17773H117.441L109.13 31.5146H102.853L94.585 9.17773H100.429L102.593 15.1948C103.589 18.3549 104.758 22.1643 106.1 26.5797C107.139 23.0301 108.307 19.2207 109.606 15.1516Z" fill="white"/>
<path d="M94.2402 20.7357V22.0344H77.5309C77.704 23.9391 78.3101 25.4109 79.3057 26.3632C80.3013 27.3156 81.6433 27.7917 83.3315 27.7917C85.799 27.7917 87.4872 26.7528 88.4396 24.5884H93.6775C93.0714 26.8827 91.8594 28.7008 90.0412 30.0427C88.1798 31.3847 85.9288 32.034 83.2882 32.034C79.955 32.034 77.2711 30.9951 75.2366 28.8307C73.1587 26.7095 72.1631 23.8958 72.1631 20.3461C72.1631 16.8397 73.1587 14.026 75.1933 11.8616C77.2278 9.74041 79.9117 8.6582 83.2017 8.6582C86.5782 8.6582 89.2621 9.7837 91.2533 11.9914C93.2446 14.2424 94.2402 17.1428 94.2402 20.7357ZM83.1584 12.9005C79.955 12.9005 78.0936 14.6753 77.5742 18.225H88.7859C88.5261 16.58 87.9201 15.2813 86.9678 14.329C85.9721 13.3767 84.7168 12.9005 83.1584 12.9005Z" fill="white"/>
<path d="M42.2646 0.693359H54.0391C58.974 0.693359 62.7834 2.07859 65.4673 4.80577C68.1512 7.57623 69.4931 11.3423 69.4931 16.1041C69.4931 20.8658 68.1512 24.6319 65.4673 27.3591C62.7834 30.1296 58.974 31.5148 54.0391 31.5148H42.2646V0.693359ZM48.1086 26.4933H53.9526C56.9827 26.4933 59.3203 25.6276 60.9653 23.8527C62.6103 22.0779 63.4327 19.4806 63.4327 16.1041C63.4327 12.7276 62.6103 10.1735 60.9653 8.39872C59.3203 6.62389 56.9827 5.71483 53.9526 5.71483H48.1086V26.4933Z" fill="white"/>
<path d="M16.061 19.6097V14.8913H29.8268V31.514H25.5845L24.762 27.4449C22.511 30.6483 19.1778 32.2067 14.7191 32.2067C10.2604 32.2067 6.7107 30.7348 4.02681 27.7912C1.34292 24.8476 0.000976562 20.9516 0.000976562 16.1033C0.000976562 11.255 1.34292 7.35905 4.11339 4.37214C6.84056 1.47181 10.5634 0 15.2385 0C19.0912 0 22.2946 0.995637 24.8919 2.94362C27.4026 4.93489 28.961 7.57549 29.4805 10.952H23.4634C23.0305 9.13388 22.0781 7.70536 20.6063 6.66643C19.1345 5.62751 17.3597 5.10805 15.2818 5.10805C12.4248 5.10805 10.2171 6.10368 8.5721 8.05166C6.92714 10.0429 6.10466 12.7268 6.10466 16.1033C6.10466 19.5231 6.92714 22.207 8.61539 24.155C10.2604 26.1463 12.5546 27.0986 15.4983 27.0986C17.7926 27.0986 19.7838 26.406 21.4288 25.0208C23.0738 23.6355 23.9395 21.8607 24.1127 19.6097H16.061Z" fill="white"/>
</svg>
