<svg width="34" height="40" viewBox="0 0 34 40" fill="none" xmlns="http://www.w3.org/2000/svg">
<path fill-rule="evenodd" clip-rule="evenodd" d="M17.94 0.0353716C15.6548 -0.113828 13.3634 0.210038 11.2091 0.986718C9.05472 1.7634 7.08378 2.97619 5.41949 4.54925C3.7612 6.11838 2.43937 8.00838 1.53437 10.1043C0.629364 12.2003 0.160097 14.4584 0.155099 16.7414C0.0306903 21.1504 1.65306 25.43 4.66898 28.6485L15.3818 39.3758C15.7856 39.7744 16.3298 39.9986 16.8972 40C17.4746 39.9971 18.0278 39.7678 18.4379 39.3613L29.1507 28.6377C31.9161 25.5122 33.5081 21.522 33.6538 17.3512C33.7768 12.9945 32.2099 8.75916 29.2809 5.53161C26.352 2.30407 22.2881 0.334568 17.94 0.0353716ZM14.8189 19.4139C15.4092 19.8078 16.1032 20.0176 16.8128 20.0169C17.7628 20.0159 18.6736 19.6381 19.3453 18.9664C20.017 18.2947 20.3948 17.3839 20.3958 16.4339C20.3965 15.7243 20.1867 15.0303 19.7929 14.44C19.399 13.8496 18.8389 13.3894 18.1834 13.1175C17.5279 12.8455 16.8065 12.7742 16.1104 12.9125C15.4143 13.0508 14.7749 13.3924 14.2731 13.8942C13.7713 14.396 13.4297 15.0354 13.2914 15.7315C13.1531 16.4276 13.2245 17.149 13.4964 17.8045C13.7683 18.46 14.2285 19.0201 14.8189 19.4139Z" fill="#FAC63E"/>
</svg>
