<svg width="35" height="40" viewBox="0 0 35 40" fill="none" xmlns="http://www.w3.org/2000/svg">
<path fill-rule="evenodd" clip-rule="evenodd" d="M18.44 0.0353716C16.1548 -0.113828 13.8634 0.210038 11.7091 0.986718C9.55472 1.7634 7.58378 2.97619 5.91949 4.54925C4.2612 6.11838 2.93937 8.00838 2.03437 10.1043C1.12936 12.2003 0.660097 14.4584 0.655099 16.7414C0.53069 21.1504 2.15306 25.43 5.16898 28.6485L15.8818 39.3758C16.2856 39.7744 16.8298 39.9986 17.3972 40C17.9746 39.9971 18.5278 39.7678 18.9379 39.3613L29.6507 28.6377C32.4161 25.5122 34.0081 21.522 34.1538 17.3512C34.2768 12.9945 32.7099 8.75916 29.7809 5.53161C26.852 2.30407 22.7881 0.334568 18.44 0.0353716ZM15.3189 19.4139C15.9092 19.8078 16.6032 20.0176 17.3128 20.0169C18.2628 20.0159 19.1736 19.6381 19.8453 18.9664C20.517 18.2947 20.8948 17.3839 20.8958 16.4339C20.8965 15.7243 20.6867 15.0303 20.2929 14.44C19.899 13.8496 19.3389 13.3894 18.6834 13.1175C18.0279 12.8455 17.3065 12.7742 16.6104 12.9125C15.9143 13.0508 15.2749 13.3924 14.7731 13.8942C14.2713 14.396 13.9297 15.0354 13.7914 15.7315C13.6531 16.4276 13.7245 17.149 13.9964 17.8045C14.2683 18.46 14.7285 19.0201 15.3189 19.4139Z" fill="white"/>
</svg>
