<svg width="100" height="100" viewBox="0 0 100 100" fill="none" xmlns="http://www.w3.org/2000/svg">
<rect width="100" height="100" fill="black"/>
<path d="M51.9194 56.5323V47.7419H77.5645V78.7097H69.6613L68.129 71.129C63.9355 77.0968 57.7258 80 49.4194 80C41.1129 80 34.5 77.2581 29.5 71.7742C24.5 66.2903 22 59.0323 22 50C22 40.9677 24.5 33.7097 29.6613 28.1452C34.7419 22.7419 41.6774 20 50.3871 20C57.5645 20 63.5323 21.8548 68.371 25.4839C73.0484 29.1936 75.9516 34.1129 76.9194 40.4032H65.7097C64.9032 37.0161 63.129 34.3548 60.3871 32.4194C57.6452 30.4839 54.3387 29.5161 50.4677 29.5161C45.1452 29.5161 41.0323 31.371 37.9677 35C34.9032 38.7097 33.371 43.7097 33.371 50C33.371 56.371 34.9032 61.371 38.0484 65C41.1129 68.7097 45.3871 70.4839 50.871 70.4839C55.1452 70.4839 58.8548 69.1935 61.9194 66.6129C64.9839 64.0323 66.5968 60.7258 66.9194 56.5323H51.9194Z" fill="white"/>
</svg>
