<svg width="20" height="21" viewBox="0 0 20 21" fill="none" xmlns="http://www.w3.org/2000/svg">
<path d="M10 3C5.84091 3 2.5 6.34091 2.5 10.5C2.5 14.6591 5.84091 18 10 18C14.1591 18 17.5 14.6591 17.5 10.5C17.5 6.34091 14.1591 3 10 3ZM15.4545 10.5C15.4545 10.9773 15.3864 11.4545 15.25 11.8636C14.8409 10.8409 14.1591 9.75 13.2045 8.65909L14.4318 7.43182C15.1136 8.31818 15.4545 9.34091 15.4545 10.5ZM6.25 6.75C7.13636 6.75 8.70455 7.29545 10.3409 8.72727L8.15909 10.9091C6.65909 9 6.25 7.43182 6.25 6.75ZM11.7727 10.1591C13.3409 12 13.75 13.5682 13.75 14.25C12.8636 14.25 11.2955 13.7045 9.65909 12.2727L11.7727 10.1591ZM13.0682 6L11.7727 7.29545C10.6818 6.34091 9.59091 5.65909 8.56818 5.25C9.04545 5.11364 9.45455 5.04545 9.93182 5.04545C11.1591 5.04545 12.1818 5.38636 13.0682 6ZM4.54545 10.5C4.54545 10.0227 4.61364 9.54545 4.75 9.13636C5.15909 10.1591 5.84091 11.25 6.79545 12.3409L5.56818 13.5682C4.88636 12.6818 4.54545 11.6591 4.54545 10.5ZM6.93182 15L8.22727 13.7045C9.31818 14.6591 10.4091 15.3409 11.4318 15.75C10.9545 15.8864 10.5455 15.9545 10.0682 15.9545C8.84091 15.9545 7.81818 15.6136 6.93182 15Z" fill="black"/>
</svg>
