<svg width="25" height="24" viewBox="0 0 25 24" fill="none" xmlns="http://www.w3.org/2000/svg">
<path fill-rule="evenodd" clip-rule="evenodd" d="M3.83398 3H3.33398V3.5V8.5V11.5V11.7071L3.48043 11.8536L5.48043 13.8536L5.62688 14H5.83398H10.334V15.5V18.5V18.7071L10.4804 18.8536L12.4804 20.8536L12.6269 21H12.834H20.834H21.334V20.5V12.5V12.2929L21.1875 12.1464L19.1875 10.1464L19.0411 10H18.834H14.834H14.334V5.5V5.29289L14.1875 5.14645L12.1875 3.14645L12.0411 3H11.834H7.83398H3.83398ZM13.334 10V5.70711L11.6269 4H7.83398H4.33398V8.5V11.2929L6.04109 13H10.334V10.5V10H10.834H13.334ZM11.334 14V15.5V18.2929L13.0411 20H20.334V12.7071L18.6269 11H14.834H14.334H13.834H11.334V13.5V14ZM19.6269 7L17.4804 4.85355L18.1875 4.14645L20.334 6.29289V4.5H21.334V7.5V8H20.834H17.834V7H19.6269ZM7.18754 19.1464L5.04109 17H6.83398V16H3.83398H3.33398V16.5V19.5H4.33398V17.7071L6.48043 19.8536L7.18754 19.1464Z" fill="black"/>
</svg>
