<svg width="324" height="40" viewBox="0 0 324 40" fill="none" xmlns="http://www.w3.org/2000/svg">
<path d="M313.691 32.1206C307.154 32.1206 303.734 29.5666 303.475 24.4152H308.799C308.929 25.8005 309.362 26.7961 310.141 27.3588C310.92 27.9649 312.132 28.2246 313.777 28.2246C316.721 28.2246 318.193 27.3588 318.193 25.5407C318.193 24.7615 317.846 24.1122 317.24 23.6793C316.591 23.2464 315.466 22.9001 313.821 22.5971L311.267 22.1642C306.375 21.385 303.951 19.134 303.951 15.4112C303.951 13.3334 304.73 11.6884 306.375 10.4763C307.977 9.26424 310.271 8.6582 313.215 8.6582C319.578 8.6582 322.868 11.2122 323.084 16.2337H317.933C317.846 14.935 317.457 13.9827 316.678 13.4199C315.898 12.8572 314.73 12.5542 313.215 12.5542C310.617 12.5542 309.319 13.4199 309.319 15.1515C309.319 15.9307 309.578 16.4934 310.184 16.9263C310.747 17.3592 311.699 17.6622 313.041 17.8787L315.855 18.3115C318.539 18.831 320.53 19.6102 321.742 20.6491C322.954 21.7313 323.604 23.2031 323.604 25.1078C323.604 27.3588 322.738 29.0904 321.006 30.3025C319.275 31.5145 316.807 32.1206 313.691 32.1206Z" fill="black"/>
<path d="M301.752 9.17687V13.3326H297.337V25.4101C297.337 26.146 297.51 26.6654 297.9 26.9252C298.289 27.2282 298.939 27.358 299.891 27.358H301.752V31.5137C300.54 31.6436 299.588 31.6869 298.895 31.6869C296.471 31.6869 294.696 31.254 293.571 30.345C292.445 29.4359 291.926 27.9641 291.926 25.9728V13.3326H288.463V9.17687H291.926V2.68359H297.337V9.17687H301.752Z" fill="black"/>
<path d="M278.6 8.6582C281.024 8.6582 282.929 9.39411 284.314 10.7793C285.7 12.1646 286.435 14.1558 286.435 16.7099V31.5145H280.981V17.6189C280.981 14.8052 279.553 13.3767 276.782 13.3767C275.397 13.3767 274.185 13.8961 273.232 14.8918C272.28 15.8874 271.804 17.2726 271.804 19.0042V31.5145H266.35V9.17766H271.631V12.381C273.319 9.91357 275.657 8.6582 278.6 8.6582Z" fill="black"/>
<path d="M262.827 20.7357V22.0344H246.118C246.291 23.9391 246.897 25.4109 247.893 26.3632C248.888 27.3156 250.23 27.7917 251.918 27.7917C254.386 27.7917 256.074 26.7528 257.026 24.5884H262.264C261.658 26.8827 260.446 28.7008 258.628 30.0427C256.767 31.3847 254.516 32.034 251.875 32.034C248.542 32.034 245.858 30.9951 243.824 28.8307C241.746 26.7095 240.75 23.8958 240.75 20.3461C240.75 16.8397 241.746 14.026 243.78 11.8616C245.815 9.74041 248.499 8.6582 251.789 8.6582C255.165 8.6582 257.849 9.7837 259.84 11.9914C261.832 14.2424 262.827 17.1428 262.827 20.7357ZM251.745 12.9005C248.542 12.9005 246.681 14.6753 246.161 18.225H257.373C257.113 16.58 256.507 15.2813 255.555 14.329C254.559 13.3767 253.304 12.9005 251.745 12.9005Z" fill="black"/>
<path d="M229.536 8.6582C231.96 8.6582 233.865 9.39411 235.25 10.8226C236.635 12.2944 237.328 14.2424 237.328 16.7532V31.5145H231.874V17.6189C231.874 14.8052 230.575 13.3767 228.021 13.3767C226.636 13.3767 225.51 13.8961 224.644 14.8918C223.779 15.8874 223.389 17.3159 223.389 19.2206V31.5145H217.978V17.6189C217.978 14.8052 216.679 13.3767 214.082 13.3767C212.697 13.3767 211.615 13.8961 210.749 14.8918C209.883 15.8874 209.493 17.3159 209.493 19.2206V31.5145H204.039V9.17766H209.32V12.381C210.835 9.91357 212.957 8.6582 215.684 8.6582C219.06 8.6582 221.398 10.0434 222.61 12.8139C224.255 10.0434 226.592 8.6582 229.536 8.6582Z" fill="black"/>
<path d="M190.632 8.6582C193.663 8.6582 196.13 9.74042 197.948 11.8183C199.723 13.9827 200.632 16.7964 200.632 20.3461C200.632 23.8958 199.723 26.7095 197.948 28.8307C196.13 30.9951 193.663 32.034 190.632 32.034C187.602 32.034 185.265 30.9085 183.706 28.6142V39.9991H178.252V9.17766H183.49V12.381C185.092 9.91357 187.472 8.6582 190.632 8.6582ZM185.135 25.6706C186.087 26.926 187.516 27.532 189.334 27.532C191.109 27.532 192.537 26.8827 193.576 25.584C194.572 24.3286 195.091 22.5105 195.091 20.1729C195.091 17.9219 194.572 16.1904 193.576 14.9783C192.58 13.7662 191.152 13.1602 189.334 13.1602C187.516 13.1602 186.087 13.8095 185.092 15.0216C184.053 16.277 183.576 18.0518 183.576 20.3461C183.576 22.6837 184.096 24.4585 185.135 25.6706Z" fill="black"/>
<path d="M171.711 28.8307C169.633 30.9951 166.863 32.034 163.486 32.034C160.067 32.034 157.339 30.9951 155.262 28.8307C153.14 26.7528 152.102 23.8958 152.102 20.3461C152.102 16.7964 153.14 13.9827 155.262 11.8616C157.339 9.74041 160.067 8.6582 163.486 8.6582C166.863 8.6582 169.633 9.74042 171.711 11.8183C173.789 13.9394 174.828 16.7964 174.828 20.3461C174.828 23.8958 173.789 26.7095 171.711 28.8307ZM163.486 27.532C165.305 27.532 166.69 26.926 167.729 25.6706C168.768 24.4152 169.287 22.6404 169.287 20.3461C169.287 18.0951 168.768 16.3203 167.729 15.0649C166.69 13.8095 165.305 13.1602 163.486 13.1602C161.668 13.1602 160.24 13.8095 159.201 15.0216C158.162 16.277 157.686 18.0518 157.686 20.3461C157.686 22.6837 158.162 24.4585 159.201 25.6706C160.24 26.926 161.668 27.532 163.486 27.532Z" fill="black"/>
<path d="M148.702 31.5148H143.248V0.693359H148.702V31.5148Z" fill="black"/>
<path d="M139.726 20.7357V22.0344H123.016C123.189 23.9391 123.795 25.4109 124.791 26.3632C125.787 27.3156 127.129 27.7917 128.817 27.7917C131.284 27.7917 132.973 26.7528 133.925 24.5884H139.163C138.557 26.8827 137.345 28.7008 135.527 30.0427C133.665 31.3847 131.414 32.034 128.774 32.034C125.44 32.034 122.756 30.9951 120.722 28.8307C118.644 26.7095 117.648 23.8958 117.648 20.3461C117.648 16.8397 118.644 14.026 120.679 11.8616C122.713 9.74041 125.397 8.6582 128.687 8.6582C132.064 8.6582 134.747 9.7837 136.739 11.9914C138.73 14.2424 139.726 17.1428 139.726 20.7357ZM128.644 12.9005C125.44 12.9005 123.579 14.6753 123.06 18.225H134.271C134.012 16.58 133.405 15.2813 132.453 14.329C131.457 13.3767 130.202 12.9005 128.644 12.9005Z" fill="black"/>
<path d="M109.605 15.1516L111.77 9.17773H117.44L109.129 31.5146H102.852L94.584 9.17773H100.428L102.592 15.1948C103.588 18.3549 104.757 22.1643 106.099 26.5797C107.138 23.0301 108.306 19.2207 109.605 15.1516Z" fill="black"/>
<path d="M94.2393 20.7357V22.0344H77.5299C77.703 23.9391 78.3091 25.4109 79.3047 26.3632C80.3004 27.3156 81.6423 27.7917 83.3305 27.7917C85.798 27.7917 87.4862 26.7528 88.4386 24.5884H93.6765C93.0705 26.8827 91.8584 28.7008 90.0403 30.0427C88.1789 31.3847 85.9279 32.034 83.2873 32.034C79.954 32.034 77.2702 30.9951 75.2356 28.8307C73.1577 26.7095 72.1621 23.8958 72.1621 20.3461C72.1621 16.8397 73.1577 14.026 75.1923 11.8616C77.2269 9.74041 79.9108 8.6582 83.2007 8.6582C86.5772 8.6582 89.2611 9.7837 91.2523 11.9914C93.2436 14.2424 94.2393 17.1428 94.2393 20.7357ZM83.1574 12.9005C79.954 12.9005 78.0926 14.6753 77.5732 18.225H88.7849C88.5252 16.58 87.9191 15.2813 86.9668 14.329C85.9711 13.3767 84.7158 12.9005 83.1574 12.9005Z" fill="black"/>
<path d="M42.2637 0.693359H54.0382C58.973 0.693359 62.7824 2.07859 65.4663 4.80577C68.1502 7.57623 69.4921 11.3423 69.4921 16.1041C69.4921 20.8658 68.1502 24.6319 65.4663 27.3591C62.7824 30.1296 58.973 31.5148 54.0382 31.5148H42.2637V0.693359ZM48.1076 26.4933H53.9516C56.9818 26.4933 59.3194 25.6276 60.9643 23.8527C62.6093 22.0779 63.4318 19.4806 63.4318 16.1041C63.4318 12.7276 62.6093 10.1735 60.9643 8.39872C59.3194 6.62389 56.9818 5.71483 53.9516 5.71483H48.1076V26.4933Z" fill="black"/>
<path d="M16.06 19.6097V14.8913H29.8258V31.514H25.5835L24.761 27.4449C22.51 30.6483 19.1768 32.2067 14.7181 32.2067C10.2594 32.2067 6.70972 30.7348 4.02583 27.7912C1.34194 24.8476 0 20.9516 0 16.1033C0 11.255 1.34194 7.35905 4.11241 4.37214C6.83959 1.47181 10.5624 0 15.2376 0C19.0902 0 22.2936 0.995637 24.8909 2.94362C27.4016 4.93489 28.96 7.57549 29.4795 10.952H23.4624C23.0295 9.13388 22.0771 7.70536 20.6053 6.66643C19.1335 5.62751 17.3587 5.10805 15.2808 5.10805C12.4238 5.10805 10.2161 6.10368 8.57113 8.05166C6.92616 10.0429 6.10368 12.7268 6.10368 16.1033C6.10368 19.5231 6.92616 22.207 8.61442 24.155C10.2594 26.1463 12.5537 27.0986 15.4973 27.0986C17.7916 27.0986 19.7829 26.406 21.4278 25.0208C23.0728 23.6355 23.9386 21.8607 24.1117 19.6097H16.06Z" fill="black"/>
</svg>
